<svg width="32" height="32" viewBox="0 0 32 32" fill="none" xmlns="http://www.w3.org/2000/svg">
<path d="M16 2C10.4772 2 6 6.47719 6 12C6 17.5228 10.4772 22 16 22C21.5228 22 26 17.5228 26 12C26 6.47719 21.5228 2 16 2ZM16 4C20.4183 4 24 7.58172 24 12C24 16.4183 20.4183 20 16 20C11.5817 20 8 16.4183 8 12C8 7.58172 11.5817 4 16 4Z" fill="#000000"/>
<path d="M16 8C13.7909 8 12 9.79086 12 12C12 14.2091 13.7909 16 16 16C18.2091 16 20 14.2091 20 12C20 9.79086 18.2091 8 16 8ZM16 10C17.1046 10 18 10.8954 18 12C18 13.1046 17.1046 14 16 14C14.8954 14 14 13.1046 14 12C14 10.8954 14.8954 10 16 10Z" fill="#000000"/>
</svg>
